<svg width='100' height='100' fill="#FFFFFF" xmlns="http://www.w3.org/2000/svg" xmlns:xlink="http://www.w3.org/1999/xlink" version="1.1" x="0px" y="0px" viewBox="25 25 75 25" enable-background="new 0 0 100 100" xml:space="preserve"><g><path d="M81.685,31.257c0,0-0.288,0.097-0.826,0.279c-0.264,0.097-0.619,0.16-0.979,0.34c-0.364,0.174-0.772,0.354-1.217,0.541   c-0.446,0.225-0.938,0.507-1.461,0.789c-0.511,0.316-1.064,0.658-1.655,1.023c-0.569,0.394-1.177,0.812-1.816,1.253   c-0.621,0.489-1.29,0.937-1.958,1.481c-1.348,1.062-2.789,2.222-4.29,3.517c-1.514,1.266-3.082,2.661-4.727,4.075   c-1.635,1.439-3.33,2.919-5.08,4.419c-1.735,1.509-3.545,3.011-5.353,4.523c-1.841,1.479-3.671,2.978-5.553,4.379   c-1.854,1.428-3.758,2.762-5.624,4.021c-1.885,1.247-3.744,2.402-5.583,3.409c-1.821,1.021-3.638,1.873-5.34,2.587   c-0.856,0.349-1.704,0.646-2.495,0.928c-0.826,0.233-1.587,0.483-2.328,0.653c-0.757,0.142-1.436,0.321-2.098,0.387   c-0.665,0.061-1.26,0.13-1.802,0.156c-1.1,0.021-1.939-0.054-2.51-0.175c-0.567-0.096-0.856-0.163-0.856-0.163   s0.287-0.097,0.827-0.278c0.264-0.096,0.59-0.159,0.955-0.336c0.365-0.173,0.781-0.352,1.238-0.543   c0.455-0.221,0.944-0.505,1.468-0.785c0.513-0.313,1.066-0.654,1.656-1.019c0.573-0.391,1.181-0.808,1.822-1.245   c0.622-0.485,1.291-0.938,1.961-1.476c1.349-1.061,2.794-2.216,4.297-3.508c1.514-1.261,3.084-2.655,4.73-4.064   c1.637-1.437,3.331-2.916,5.082-4.413c1.737-1.507,3.548-3.007,5.354-4.519c1.84-1.479,3.671-2.976,5.55-4.379   c1.855-1.425,3.755-2.765,5.62-4.023c1.882-1.25,3.741-2.406,5.577-3.417c1.818-1.023,3.631-1.88,5.331-2.597   c0.853-0.353,1.703-0.651,2.493-0.934c0.821-0.242,1.586-0.485,2.324-0.663c0.757-0.145,1.436-0.321,2.096-0.394   c0.667-0.063,1.258-0.129,1.805-0.162c1.136-0.028,1.959,0.049,2.509,0.169C81.387,31.2,81.685,31.257,81.685,31.257z"/><g><path d="M51.883,56.657c0,0,1.11,0.477,3.058,1.311c0.967,0.408,2.142,0.904,3.488,1.474c1.356,0.539,2.852,1.196,4.518,1.825    c1.663,0.628,3.44,1.34,5.354,1.961c1.905,0.634,3.911,1.271,5.99,1.772c2.075,0.511,4.225,0.902,6.338,1.02    c2.079,0.125,4.042-0.135,6.015-0.788c0.979-0.325,1.942-0.738,2.874-1.234c0.925-0.509,1.82-1.095,2.666-1.752    c1.684-1.322,3.152-2.953,4.256-4.778c1.093-1.829,1.834-3.836,2.164-5.822c0.353-1.97,0.308-3.965,0.113-5.709    c-0.203-1.776-0.658-3.376-1.235-4.718c-0.572-1.344-1.217-2.458-1.837-3.309c-0.615-0.854-1.179-1.467-1.582-1.859    c-0.406-0.391-0.647-0.574-0.647-0.574s0.243,0.178,0.657,0.563c0.415,0.38,1.007,0.968,1.66,1.803    c0.648,0.834,1.395,1.895,2.061,3.228c0.661,1.332,1.285,2.917,1.673,4.733c0.185,0.901,0.366,1.902,0.424,2.866    c0.021,0.245,0.042,0.491,0.063,0.74c0.021,0.293,0.022,0.525,0.034,0.794c0.028,0.522,0.005,1.054-0.011,1.594    c-0.115,2.156-0.516,4.453-1.357,6.732c-0.838,2.271-2.114,4.521-3.855,6.481c-0.862,0.985-1.845,1.893-2.931,2.681    c-1.076,0.805-2.26,1.486-3.521,2.018c-2.502,1.082-5.393,1.483-8.009,1.206c-2.591-0.213-4.998-0.812-7.235-1.541    c-2.24-0.729-4.311-1.614-6.215-2.548c-1.894-0.953-3.652-1.887-5.213-2.858c-1.558-0.974-2.97-1.876-4.169-2.763    c-1.207-0.867-2.238-1.651-3.061-2.336C52.749,57.526,51.883,56.657,51.883,56.657z"/></g><g><path d="M48.116,43.342c0,0-1.11-0.478-3.058-1.312c-0.967-0.409-2.142-0.904-3.488-1.473c-1.356-0.538-2.852-1.197-4.518-1.825    c-1.663-0.629-3.44-1.34-5.354-1.961c-1.905-0.634-3.911-1.272-5.99-1.772c-2.075-0.511-4.225-0.904-6.338-1.02    c-2.079-0.124-4.042,0.135-6.015,0.788c-0.979,0.324-1.942,0.739-2.874,1.235c-0.925,0.509-1.819,1.093-2.666,1.75    c-1.684,1.324-3.151,2.955-4.256,4.78c-1.093,1.829-1.834,3.835-2.164,5.822c-0.353,1.969-0.308,3.964-0.113,5.709    c0.203,1.776,0.658,3.376,1.235,4.717c0.572,1.345,1.217,2.458,1.837,3.31c0.615,0.854,1.179,1.467,1.582,1.858    c0.406,0.391,0.647,0.574,0.647,0.574s-0.243-0.178-0.657-0.563c-0.415-0.382-1.007-0.967-1.66-1.803    c-0.648-0.835-1.395-1.896-2.061-3.229c-0.661-1.332-1.285-2.917-1.673-4.731c-0.185-0.902-0.366-1.903-0.424-2.866    c-0.021-0.245-0.042-0.491-0.063-0.74c-0.021-0.293-0.022-0.525-0.034-0.794c-0.028-0.522-0.005-1.054,0.011-1.594    c0.115-2.156,0.516-4.453,1.357-6.731c0.838-2.273,2.114-4.523,3.856-6.483c0.862-0.985,1.844-1.892,2.93-2.68    c1.077-0.803,2.261-1.486,3.521-2.017c2.502-1.082,5.393-1.484,8.009-1.207c2.591,0.213,4.998,0.812,7.235,1.542    c2.24,0.73,4.311,1.613,6.215,2.548c1.894,0.954,3.652,1.887,5.213,2.858c1.558,0.975,2.97,1.876,4.169,2.763    c1.207,0.868,2.238,1.652,3.061,2.335C47.25,42.471,48.116,43.342,48.116,43.342z"/></g></g></svg>
